<svg width="74" height="16" viewBox="0 0 76 16" xmlns="http://www.w3.org/2000/svg" class="ml-2 mr-3 fill-darkblue-500 stroke-darkblue-500 dark:fill-gray-200 dark:stroke-gray-200" stroke-width="0.5" fill = "#FFFFFF"><path d="M0 15.4082V0H1.72848V13.8525H11.729V15.4082H0Z" fill-opacity="1" pathLength="1" stroke-dashoffset="0px" stroke-dasharray="1px 1px"></path><path d="M26.0335 7.35839V8.91402H18.6504V7.35839H26.0335ZM14.5021 15.4082V0H26.231V1.55563H16.2306V13.8525H26.231V15.4082H14.5021Z" fill-opacity="1" pathLength="1" stroke-dashoffset="0px" stroke-dasharray="1px 1px"></path><path d="M28.5085 0L32.2865 7.77816L28.5085 15.4082H30.3852L34.2372 7.77816L30.3852 0H28.5085ZM41.7191 0L37.867 7.77816L41.7191 15.4082H43.5957L39.8178 7.77816L43.5957 0H41.7191Z" fill-opacity="1" pathLength="1" stroke-dashoffset="0px" stroke-dasharray="1px 1px"></path><path d="M57.4008 7.35839V8.91402H50.0177V7.35839H57.4008ZM45.8694 15.4082V0H57.5983V1.55563H47.5978V13.8525H57.5983V15.4082H45.8694Z" fill-opacity="1" pathLength="1" stroke-dashoffset="0px" stroke-dasharray="1px 1px"></path><path d="M71.7036 15.4082H73.5555L70.2714 8.91402C70.7817 8.91402 71.2591 8.79879 71.7036 8.56833C72.1645 8.3214 72.5596 8.0004 72.8888 7.60532C73.2345 7.19377 73.5061 6.73284 73.7037 6.22253C73.9012 5.69576 74 5.14429 74 4.56813C74 3.92612 73.893 3.32527 73.679 2.76557C73.4815 2.20587 73.2098 1.72848 72.8641 1.3334C72.5184 0.921856 72.1151 0.600852 71.6542 0.370388C71.1933 0.123463 70.7077 0 70.1973 0H60.4438V15.4082H62.1723V1.55563H69.8763C70.2385 1.55563 70.5595 1.6544 70.8394 1.85194C71.1357 2.03302 71.3826 2.27172 71.5801 2.56803C71.7777 2.84788 71.9258 3.16888 72.0246 3.53104C72.1398 3.87674 72.1974 4.2142 72.1974 4.54344C72.1974 4.83975 72.1563 5.15252 72.074 5.48175C71.9917 5.81099 71.8517 6.11553 71.6542 6.39538C71.4731 6.67523 71.2427 6.90569 70.9628 7.08677C70.683 7.26785 70.3455 7.35839 69.9504 7.35839H67.5799L71.7036 15.4082Z" fill-opacity="1" pathLength="1" stroke-dashoffset="0px"  stroke-dasharray="1px 1px"></path></svg>