<svg width="108" height="97" viewBox="0 0 108 97" fill="none" xmlns="http://www.w3.org/2000/svg">
<g clip-path="url(#clip0_0_1)">
<path d="M15.4269 0H7.71289V7.43829H15.4269V0Z" fill="#D79734"/>
<path d="M23.1437 0H15.4297V7.43829H23.1437V0Z" fill="#EAC641"/>
<path d="M30.8566 0H23.1426V7.43829H30.8566V0Z" fill="#EAC641"/>
<path d="M38.5714 0H30.8574V7.43829H38.5714V0Z" fill="#EAC641"/>
<path d="M46.2862 0H38.5723V7.43829H46.2862V0Z" fill="#EAC641"/>
<path d="M54.0011 0H46.2871V7.43829H54.0011V0Z" fill="#F1E39F"/>
<path d="M61.714 0H54V7.43829H61.714V0Z" fill="#EAC641"/>
<path d="M69.4269 0H61.7129V7.43829H69.4269V0Z" fill="#F1E39F"/>
<path d="M77.1417 0H69.4277V7.43829H77.1417V0Z" fill="#FDFAD4"/>
<path d="M84.8565 0H77.1426V7.43829H84.8565V0Z" fill="#F1E39F"/>
<path d="M92.5714 0H84.8574V7.43829H92.5714V0Z" fill="#EAC641"/>
<path d="M100.284 0H92.5703V7.43829H100.284V0Z" fill="#D79734"/>
<path d="M23.1437 7.43799H15.4297V14.8763H23.1437V7.43799Z" fill="#D79734"/>
<path d="M30.8566 7.43799H23.1426V14.8763H30.8566V7.43799Z" fill="#B4642D"/>
<path d="M38.5714 7.43799H30.8574V14.8763H38.5714V7.43799Z" fill="#D79734"/>
<path d="M46.2843 7.43799H38.5703V14.8763H46.2843V7.43799Z" fill="#D79734"/>
<path d="M54.0011 7.43799H46.2871V14.8763H54.0011V7.43799Z" fill="#D79734"/>
<path d="M61.714 7.43799H54V14.8763H61.714V7.43799Z" fill="#D79734"/>
<path d="M69.4269 7.43799H61.7129V14.8763H69.4269V7.43799Z" fill="#D79734"/>
<path d="M77.1437 7.43799H69.4297V14.8763H77.1437V7.43799Z" fill="#D79734"/>
<path d="M84.8565 7.43799H77.1426V14.8763H84.8565V7.43799Z" fill="#D79734"/>
<path d="M92.5714 7.43799H84.8574V14.8763H92.5714V7.43799Z" fill="#D79734"/>
<path d="M7.71397 14.8765H0V22.3148H7.71397V14.8765Z" fill="#EAC641"/>
<path d="M15.4269 14.877H7.71289V22.3152H15.4269V14.877Z" fill="#B4642D"/>
<path d="M23.1437 14.877H15.4297V22.3152H23.1437V14.877Z" fill="#D79734"/>
<path d="M30.8566 14.877H23.1426V22.3152H30.8566V14.877Z" fill="#B4642D"/>
<path d="M38.5714 14.877H30.8574V22.3152H38.5714V14.877Z" fill="#D79734"/>
<path d="M46.2862 14.8765H38.5723V22.3148H46.2862V14.8765Z" fill="#EAC641"/>
<path d="M54.0011 14.877H46.2871V22.3152H54.0011V14.877Z" fill="#EAC641"/>
<path d="M61.714 14.8765H54V22.3148H61.714V14.8765Z" fill="#EAC641"/>
<path d="M69.4269 14.877H61.7129V22.3152H69.4269V14.877Z" fill="#EAC641"/>
<path d="M77.1417 14.8765H69.4277V22.3148H77.1417V14.8765Z" fill="#FDFAD4"/>
<path d="M84.8565 14.877H77.1426V22.3152H84.8565V14.877Z" fill="#EAC641"/>
<path d="M92.5714 14.877H84.8574V22.3152H92.5714V14.877Z" fill="#EAC641"/>
<path d="M100.284 14.877H92.5703V22.3152H100.284V14.877Z" fill="#B4642D"/>
<path d="M107.999 14.877H100.285V22.3152H107.999V14.877Z" fill="#F1E39F"/>
<path d="M7.71397 22.3159H0V29.7542H7.71397V22.3159Z" fill="#EAC641"/>
<path d="M23.1437 22.3159H15.4297V29.7542H23.1437V22.3159Z" fill="#D79734"/>
<path d="M30.8566 22.3159H23.1426V29.7542H30.8566V22.3159Z" fill="#B4642D"/>
<path d="M38.5714 22.3159H30.8574V29.7542H38.5714V22.3159Z" fill="#D79734"/>
<path d="M46.2843 22.3159H38.5703V29.7542H46.2843V22.3159Z" fill="#EAC641"/>
<path d="M54.0011 22.3159H46.2871V29.7542H54.0011V22.3159Z" fill="#EAC641"/>
<path d="M61.714 22.3159H54V29.7542H61.714V22.3159Z" fill="#EAC641"/>
<path d="M69.4269 22.3159H61.7129V29.7542H69.4269V22.3159Z" fill="#EAC641"/>
<path d="M77.1437 22.3159H69.4297V29.7542H77.1437V22.3159Z" fill="#F1E39F"/>
<path d="M84.8565 22.3159H77.1426V29.7542H84.8565V22.3159Z" fill="#EAC641"/>
<path d="M92.5714 22.3159H84.8574V29.7542H92.5714V22.3159Z" fill="#EAC641"/>
<path d="M107.999 22.3159H100.285V29.7542H107.999V22.3159Z" fill="#EAC641"/>
<path d="M7.71397 29.7549H0V37.1932H7.71397V29.7549Z" fill="#D79734"/>
<path d="M30.8566 29.7549H23.1426V37.1932H30.8566V29.7549Z" fill="#D79734"/>
<path d="M38.5714 29.7549H30.8574V37.1932H38.5714V29.7549Z" fill="#B4642D"/>
<path d="M46.2843 29.7549H38.5703V37.1932H46.2843V29.7549Z" fill="#D79734"/>
<path d="M54.0011 29.7549H46.2871V37.1932H54.0011V29.7549Z" fill="#EAC641"/>
<path d="M61.714 29.7549H54V37.1932H61.714V29.7549Z" fill="#EAC641"/>
<path d="M69.4269 29.7549H61.7129V37.1932H69.4269V29.7549Z" fill="#EAC641"/>
<path d="M77.1437 29.7549H69.4297V37.1932H77.1437V29.7549Z" fill="#F1E39F"/>
<path d="M84.8565 29.7549H77.1426V37.1932H84.8565V29.7549Z" fill="#EAC641"/>
<path d="M107.999 29.7549H100.285V37.1932H107.999V29.7549Z" fill="#D79734"/>
<path d="M15.4269 37.1924H7.71289V44.6307H15.4269V37.1924Z" fill="#D79734"/>
<path d="M38.5714 37.1924H30.8574V44.6307H38.5714V37.1924Z" fill="#D79734"/>
<path d="M46.2843 37.1924H38.5703V44.6307H46.2843V37.1924Z" fill="#B4642D"/>
<path d="M54.0011 37.1924H46.2871V44.6307H54.0011V37.1924Z" fill="#D79734"/>
<path d="M61.714 37.1924H54V44.6307H61.714V37.1924Z" fill="#EAC641"/>
<path d="M69.4269 37.1924H61.7129V44.6307H69.4269V37.1924Z" fill="#EAC641"/>
<path d="M77.1437 37.1924H69.4297V44.6307H77.1437V37.1924Z" fill="#EAC641"/>
<path d="M100.284 37.1924H92.5703V44.6307H100.284V37.1924Z" fill="#D79734"/>
<path d="M23.1437 44.6313H15.4297V52.0696H23.1437V44.6313Z" fill="#B4642D"/>
<path d="M30.8566 44.6313H23.1426V52.0696H30.8566V44.6313Z" fill="#B4642D"/>
<path d="M46.2843 44.6313H38.5703V52.0696H46.2843V44.6313Z" fill="#D79734"/>
<path d="M54.0011 44.6313H46.2871V52.0696H54.0011V44.6313Z" fill="#B4642D"/>
<path d="M61.714 44.6313H54V52.0696H61.714V44.6313Z" fill="#D79734"/>
<path d="M69.4269 44.6313H61.7129V52.0696H69.4269V44.6313Z" fill="#D79734"/>
<path d="M84.8565 44.6313H77.1426V52.0696H84.8565V44.6313Z" fill="#B4642D"/>
<path d="M92.5714 44.6313H84.8574V52.0696H92.5714V44.6313Z" fill="#B4642D"/>
<path d="M54.0011 52.0693H46.2871V59.5076H54.0011V52.0693Z" fill="#B4642D"/>
<path d="M61.714 52.0693H54V59.5076H61.714V52.0693Z" fill="#EAC641"/>
<path d="M54.0011 59.5083H46.2871V66.9466H54.0011V59.5083Z" fill="#D79734"/>
<path d="M61.714 59.5083H54V66.9466H61.714V59.5083Z" fill="#EAC641"/>
<path d="M54.0011 66.9473H46.2871V74.3856H54.0011V66.9473Z" fill="#D79734"/>
<path d="M61.714 66.9473H54V74.3856H61.714V66.9473Z" fill="#F1E39F"/>
<path d="M46.2843 74.3862H38.5703V81.8245H46.2843V74.3862Z" fill="#D79734"/>
<path d="M54.0011 74.3862H46.2871V81.8245H54.0011V74.3862Z" fill="#D79734"/>
<path d="M61.714 74.3857H54V81.824H61.714V74.3857Z" fill="#FDFAD4"/>
<path d="M69.4269 74.3862H61.7129V81.8245H69.4269V74.3862Z" fill="#D79734"/>
<path d="M38.5714 81.8237H30.8574V89.262H38.5714V81.8237Z" fill="#D79734"/>
<path d="M46.2862 81.8242H38.5723V89.2625H46.2862V81.8242Z" fill="#B4642D"/>
<path d="M54.0011 81.8237H46.2871V89.262H54.0011V81.8237Z" fill="#EAC641"/>
<path d="M61.714 81.8237H54V89.262H61.714V81.8237Z" fill="#EAC641"/>
<path d="M69.4269 81.8237H61.7129V89.262H69.4269V81.8237Z" fill="#F1E39F"/>
<path d="M77.1417 81.8242H69.4277V89.2625H77.1417V81.8242Z" fill="#D79734"/>
<path d="M30.8566 89.2627H23.1426V96.701H30.8566V89.2627Z" fill="#D79734"/>
<path d="M38.5714 89.2627H30.8574V96.701H38.5714V89.2627Z" fill="#B4642D"/>
<path d="M46.2843 89.2627H38.5703V96.701H46.2843V89.2627Z" fill="#D79734"/>
<path d="M54.0011 89.2627H46.2871V96.701H54.0011V89.2627Z" fill="#D79734"/>
<path d="M61.714 89.2627H54V96.701H61.714V89.2627Z" fill="#D79734"/>
<path d="M69.4269 89.2627H61.7129V96.701H69.4269V89.2627Z" fill="#EAC641"/>
<path d="M77.1437 89.2627H69.4297V96.701H77.1437V89.2627Z" fill="#EAC641"/>
<path d="M84.8565 89.2627H77.1426V96.701H84.8565V89.2627Z" fill="#D79734"/>
</g>
<path d="M54.1595 42V26.16C53.2595 26.79 51.3695 27.27 49.4195 27.33V24.51C52.1495 24.42 53.7095 23.43 54.3095 21.42H57.7595V42H54.1595Z" fill="white"/>
<defs>
<clipPath id="clip0_0_1">
<rect width="108" height="97" fill="white"/>
</clipPath>
</defs>
</svg>
