<svg width="108" height="91" viewBox="0 0 108 91" fill="none" xmlns="http://www.w3.org/2000/svg">
<g clip-path="url(#clip0_0_1)">
<path d="M15.4288 0H7.71484V7.77999H15.4288V0Z" fill="#9AAFC3"/>
<path d="M23.1417 0H15.4277V7.77999H23.1417V0Z" fill="#BBD2D5"/>
<path d="M30.8566 0H23.1426V7.77999H30.8566V0Z" fill="#BBD2D5"/>
<path d="M38.5714 0H30.8574V7.77999H38.5714V0Z" fill="#BBD2D5"/>
<path d="M46.2862 0H38.5723V7.77999H46.2862V0Z" fill="#BBD2D5"/>
<path d="M53.9991 0H46.2852V7.77999H53.9991V0Z" fill="#E8EAF7"/>
<path d="M61.714 0H54V7.77999H61.714V0Z" fill="#BBD2D5"/>
<path d="M69.4269 0H61.7129V7.77999H69.4269V0Z" fill="#E8EAF7"/>
<path d="M77.1417 0H69.4277V7.77999H77.1417V0Z" fill="#E8EAF7"/>
<path d="M84.8565 0H77.1426V7.77999H84.8565V0Z" fill="#E8EAF7"/>
<path d="M92.5714 0H84.8574V7.77999H92.5714V0Z" fill="#BBD2D5"/>
<path d="M100.286 0H92.5723V7.77999H100.286V0Z" fill="#9AAFC3"/>
<path d="M23.1417 7.7793H15.4277V15.5593H23.1417V7.7793Z" fill="#9AAFC3"/>
<path d="M30.8566 7.7793H23.1426V15.5593H30.8566V7.7793Z" fill="#7889A7"/>
<path d="M38.5714 7.7793H30.8574V15.5593H38.5714V7.7793Z" fill="#9AAFC3"/>
<path d="M46.2862 7.7793H38.5723V15.5593H46.2862V7.7793Z" fill="#9AAFC3"/>
<path d="M53.9991 7.7793H46.2852V15.5593H53.9991V7.7793Z" fill="#9AAFC3"/>
<path d="M61.714 7.7793H54V15.5593H61.714V7.7793Z" fill="#9AAFC3"/>
<path d="M69.4269 7.7793H61.7129V15.5593H69.4269V7.7793Z" fill="#9AAFC3"/>
<path d="M77.1417 7.7793H69.4277V15.5593H77.1417V7.7793Z" fill="#9AAFC3"/>
<path d="M84.8565 7.7793H77.1426V15.5593H84.8565V7.7793Z" fill="#9AAFC3"/>
<path d="M92.5714 7.7793H84.8574V15.5593H92.5714V7.7793Z" fill="#9AAFC3"/>
<path d="M7.71397 15.5596H0V23.3396H7.71397V15.5596Z" fill="#BBD2D5"/>
<path d="M15.4288 15.5596H7.71484V23.3396H15.4288V15.5596Z" fill="#7889A7"/>
<path d="M23.1417 15.5596H15.4277V23.3396H23.1417V15.5596Z" fill="#9AAFC3"/>
<path d="M30.8566 15.5596H23.1426V23.3396H30.8566V15.5596Z" fill="#7889A7"/>
<path d="M38.5714 15.5596H30.8574V23.3396H38.5714V15.5596Z" fill="#9AAFC3"/>
<path d="M46.2862 15.5596H38.5723V23.3396H46.2862V15.5596Z" fill="#BBD2D5"/>
<path d="M53.9991 15.5596H46.2852V23.3396H53.9991V15.5596Z" fill="#BBD2D5"/>
<path d="M61.714 15.5596H54V23.3396H61.714V15.5596Z" fill="#BBD2D5"/>
<path d="M69.4269 15.5596H61.7129V23.3396H69.4269V15.5596Z" fill="#BBD2D5"/>
<path d="M77.1417 15.5596H69.4277V23.3396H77.1417V15.5596Z" fill="#E8EAF7"/>
<path d="M84.8565 15.5596H77.1426V23.3396H84.8565V15.5596Z" fill="#BBD2D5"/>
<path d="M92.5714 15.5596H84.8574V23.3396H92.5714V15.5596Z" fill="#BBD2D5"/>
<path d="M100.286 15.5596H92.5723V23.3396H100.286V15.5596Z" fill="#7889A7"/>
<path d="M107.997 15.5596H100.283V23.3396H107.997V15.5596Z" fill="#E8EAF7"/>
<path d="M7.71397 23.3408H0V31.1208H7.71397V23.3408Z" fill="#BBD2D5"/>
<path d="M23.1417 23.3408H15.4277V31.1208H23.1417V23.3408Z" fill="#9AAFC3"/>
<path d="M30.8566 23.3408H23.1426V31.1208H30.8566V23.3408Z" fill="#7889A7"/>
<path d="M38.5714 23.3408H30.8574V31.1208H38.5714V23.3408Z" fill="#9AAFC3"/>
<path d="M46.2862 23.3408H38.5723V31.1208H46.2862V23.3408Z" fill="#BBD2D5"/>
<path d="M53.9991 23.3408H46.2852V31.1208H53.9991V23.3408Z" fill="#BBD2D5"/>
<path d="M61.714 23.3408H54V31.1208H61.714V23.3408Z" fill="#BBD2D5"/>
<path d="M69.4269 23.3408H61.7129V31.1208H69.4269V23.3408Z" fill="#BBD2D5"/>
<path d="M77.1417 23.3408H69.4277V31.1208H77.1417V23.3408Z" fill="#E8EAF7"/>
<path d="M84.8565 23.3408H77.1426V31.1208H84.8565V23.3408Z" fill="#BBD2D5"/>
<path d="M92.5714 23.3408H84.8574V31.1208H92.5714V23.3408Z" fill="#BBD2D5"/>
<path d="M107.997 23.3408H100.283V31.1208H107.997V23.3408Z" fill="#BBD2D5"/>
<path d="M7.71397 31.1211H0V38.9011H7.71397V31.1211Z" fill="#9AAFC3"/>
<path d="M30.8566 31.1221H23.1426V38.9021H30.8566V31.1221Z" fill="#9AAFC3"/>
<path d="M38.5714 31.1221H30.8574V38.9021H38.5714V31.1221Z" fill="#7889A7"/>
<path d="M46.2862 31.1211H38.5723V38.9011H46.2862V31.1211Z" fill="#9AAFC3"/>
<path d="M53.9991 31.1221H46.2852V38.9021H53.9991V31.1221Z" fill="#BBD2D5"/>
<path d="M61.714 31.1221H54V38.9021H61.714V31.1221Z" fill="#BBD2D5"/>
<path d="M69.4269 31.1221H61.7129V38.9021H69.4269V31.1221Z" fill="#BBD2D5"/>
<path d="M77.1417 31.1211H69.4277V38.9011H77.1417V31.1211Z" fill="#E8EAF7"/>
<path d="M84.8565 31.1221H77.1426V38.9021H84.8565V31.1221Z" fill="#BBD2D5"/>
<path d="M107.997 31.1221H100.283V38.9021H107.997V31.1221Z" fill="#9AAFC3"/>
<path d="M15.4288 38.9014H7.71484V46.6814H15.4288V38.9014Z" fill="#9AAFC3"/>
<path d="M38.5714 38.9014H30.8574V46.6814H38.5714V38.9014Z" fill="#9AAFC3"/>
<path d="M46.2862 38.9014H38.5723V46.6814H46.2862V38.9014Z" fill="#7889A7"/>
<path d="M53.9991 38.9014H46.2852V46.6814H53.9991V38.9014Z" fill="#9AAFC3"/>
<path d="M61.714 38.9014H54V46.6814H61.714V38.9014Z" fill="#BBD2D5"/>
<path d="M69.4269 38.9014H61.7129V46.6814H69.4269V38.9014Z" fill="#BBD2D5"/>
<path d="M77.1417 38.9014H69.4277V46.6814H77.1417V38.9014Z" fill="#BBD2D5"/>
<path d="M100.286 38.9014H92.5723V46.6814H100.286V38.9014Z" fill="#9AAFC3"/>
<path d="M23.1417 46.6816H15.4277V54.4616H23.1417V46.6816Z" fill="#7889A7"/>
<path d="M30.8566 46.6816H23.1426V54.4616H30.8566V46.6816Z" fill="#7889A7"/>
<path d="M46.2862 46.6816H38.5723V54.4616H46.2862V46.6816Z" fill="#9AAFC3"/>
<path d="M53.9991 46.6816H46.2852V54.4616H53.9991V46.6816Z" fill="#7889A7"/>
<path d="M61.714 46.6816H54V54.4616H61.714V46.6816Z" fill="#9AAFC3"/>
<path d="M69.4269 46.6816H61.7129V54.4616H69.4269V46.6816Z" fill="#9AAFC3"/>
<path d="M84.8565 46.6816H77.1426V54.4616H84.8565V46.6816Z" fill="#7889A7"/>
<path d="M92.5714 46.6816H84.8574V54.4616H92.5714V46.6816Z" fill="#7889A7"/>
<path d="M53.9991 54.4609H46.2852V62.2409H53.9991V54.4609Z" fill="#7889A7"/>
<path d="M61.714 54.4609H54V62.2409H61.714V54.4609Z" fill="#BBD2D5"/>
<path d="M53.9991 62.2412H46.2852V70.0212H53.9991V62.2412Z" fill="#9AAFC3"/>
<path d="M61.714 62.2412H54V70.0212H61.714V62.2412Z" fill="#BBD2D5"/>
<path d="M53.9991 70.0225H46.2852V77.8025H53.9991V70.0225Z" fill="#9AAFC3"/>
<path d="M61.714 70.0225H54V77.8025H61.714V70.0225Z" fill="#E8EAF7"/>
<path d="M46.2862 77.8037H38.5723V85.5837H46.2862V77.8037Z" fill="#9AAFC3"/>
<path d="M53.9991 77.8037H46.2852V85.5837H53.9991V77.8037Z" fill="#9AAFC3"/>
<path d="M61.714 77.8037H54V85.5837H61.714V77.8037Z" fill="#E8EAF7"/>
<path d="M69.4269 77.8037H61.7129V85.5837H69.4269V77.8037Z" fill="#9AAFC3"/>
<path d="M38.5714 85.583H30.8574V93.363H38.5714V85.583Z" fill="#9AAFC3"/>
<path d="M46.2862 85.583H38.5723V93.363H46.2862V85.583Z" fill="#7889A7"/>
<path d="M53.9991 85.583H46.2852V93.363H53.9991V85.583Z" fill="#BBD2D5"/>
<path d="M61.714 85.583H54V93.363H61.714V85.583Z" fill="#BBD2D5"/>
<path d="M69.4269 85.583H61.7129V93.363H69.4269V85.583Z" fill="#E8EAF7"/>
<path d="M77.1417 85.583H69.4277V93.363H77.1417V85.583Z" fill="#9AAFC3"/>
</g>
<path d="M46.3873 36V32.97L56.3173 26.01C57.5773 25.14 58.4173 23.43 58.4173 21.75C58.4173 19.62 56.7373 18.18 54.1873 18.18C51.6373 18.18 49.9573 20.1 49.9573 23.01H46.5673C46.5673 18.21 49.6273 15 54.1873 15C58.8973 15 62.0173 17.7 62.0173 21.75C62.0173 24.45 60.5773 27.21 58.4173 28.65L52.4173 32.82H61.9873V36H46.3873Z" fill="white"/>
<defs>
<clipPath id="clip0_0_1">
<rect width="108" height="91" fill="white"/>
</clipPath>
</defs>
</svg>
