<svg width="108" height="93" viewBox="0 0 108 93" fill="none" xmlns="http://www.w3.org/2000/svg">
<g clip-path="url(#clip0_0_1)">
<path d="M15.4288 0H7.71484V7.78823H15.4288V0Z" fill="#C07153"/>
<path d="M23.1417 0H15.4277V7.78823H23.1417V0Z" fill="#DC997A"/>
<path d="M30.8585 0H23.1445V7.78823H30.8585V0Z" fill="#DC997A"/>
<path d="M38.5714 0H30.8574V7.78823H38.5714V0Z" fill="#DC997A"/>
<path d="M46.2862 0H38.5723V7.78823H46.2862V0Z" fill="#DC997A"/>
<path d="M53.9991 0H46.2852V7.78823H53.9991V0Z" fill="#F1CCB4"/>
<path d="M61.714 0H54V7.78823H61.714V0Z" fill="#DC997A"/>
<path d="M69.4288 0H61.7148V7.78823H69.4288V0Z" fill="#F1CCB4"/>
<path d="M77.1417 0H69.4277V7.78823H77.1417V0Z" fill="#FDFAD4"/>
<path d="M84.8565 0H77.1426V7.78823H84.8565V0Z" fill="#F1CCB4"/>
<path d="M92.5694 0H84.8555V7.78823H92.5694V0Z" fill="#DC997A"/>
<path d="M100.284 0H92.5703V7.78823H100.284V0Z" fill="#C07153"/>
<path d="M23.1417 7.78809H15.4277V15.5763H23.1417V7.78809Z" fill="#C07153"/>
<path d="M30.8585 7.78809H23.1445V15.5763H30.8585V7.78809Z" fill="#984641"/>
<path d="M38.5714 7.78809H30.8574V15.5763H38.5714V7.78809Z" fill="#C07153"/>
<path d="M46.2862 7.78809H38.5723V15.5763H46.2862V7.78809Z" fill="#C07153"/>
<path d="M53.9991 7.78809H46.2852V15.5763H53.9991V7.78809Z" fill="#C07153"/>
<path d="M61.714 7.78809H54V15.5763H61.714V7.78809Z" fill="#C07153"/>
<path d="M69.4288 7.78809H61.7148V15.5763H69.4288V7.78809Z" fill="#C07153"/>
<path d="M77.1417 7.78809H69.4277V15.5763H77.1417V7.78809Z" fill="#C07153"/>
<path d="M84.8565 7.78809H77.1426V15.5763H84.8565V7.78809Z" fill="#C07153"/>
<path d="M92.5694 7.78809H84.8555V15.5763H92.5694V7.78809Z" fill="#C07153"/>
<path d="M7.71397 15.5762H0V23.3644H7.71397V15.5762Z" fill="#DC997A"/>
<path d="M15.4288 15.5762H7.71484V23.3644H15.4288V15.5762Z" fill="#984641"/>
<path d="M23.1417 15.5762H15.4277V23.3644H23.1417V15.5762Z" fill="#C07153"/>
<path d="M30.8585 15.5762H23.1445V23.3644H30.8585V15.5762Z" fill="#984641"/>
<path d="M38.5714 15.5762H30.8574V23.3644H38.5714V15.5762Z" fill="#C07153"/>
<path d="M46.2862 15.5762H38.5723V23.3644H46.2862V15.5762Z" fill="#DC997A"/>
<path d="M53.9991 15.5762H46.2852V23.3644H53.9991V15.5762Z" fill="#DC997A"/>
<path d="M61.714 15.5762H54V23.3644H61.714V15.5762Z" fill="#DC997A"/>
<path d="M69.4288 15.5762H61.7148V23.3644H69.4288V15.5762Z" fill="#DC997A"/>
<path d="M77.1417 15.5762H69.4277V23.3644H77.1417V15.5762Z" fill="#FDFAD4"/>
<path d="M84.8565 15.5762H77.1426V23.3644H84.8565V15.5762Z" fill="#DC997A"/>
<path d="M92.5694 15.5762H84.8555V23.3644H92.5694V15.5762Z" fill="#DC997A"/>
<path d="M100.284 15.5762H92.5703V23.3644H100.284V15.5762Z" fill="#984641"/>
<path d="M107.999 15.5762H100.285V23.3644H107.999V15.5762Z" fill="#F1CCB4"/>
<path d="M7.71397 23.3662H0V31.1544H7.71397V23.3662Z" fill="#DC997A"/>
<path d="M23.1417 23.3662H15.4277V31.1544H23.1417V23.3662Z" fill="#C07153"/>
<path d="M30.8585 23.3662H23.1445V31.1544H30.8585V23.3662Z" fill="#984641"/>
<path d="M38.5714 23.3662H30.8574V31.1544H38.5714V23.3662Z" fill="#C07153"/>
<path d="M46.2862 23.3662H38.5723V31.1544H46.2862V23.3662Z" fill="#DC997A"/>
<path d="M53.9991 23.3662H46.2852V31.1544H53.9991V23.3662Z" fill="#DC997A"/>
<path d="M61.714 23.3662H54V31.1544H61.714V23.3662Z" fill="#DC997A"/>
<path d="M69.4288 23.3662H61.7148V31.1544H69.4288V23.3662Z" fill="#DC997A"/>
<path d="M77.1417 23.3662H69.4277V31.1544H77.1417V23.3662Z" fill="#F1CCB4"/>
<path d="M84.8565 23.3662H77.1426V31.1544H84.8565V23.3662Z" fill="#DC997A"/>
<path d="M92.5694 23.3662H84.8555V31.1544H92.5694V23.3662Z" fill="#DC997A"/>
<path d="M107.999 23.3662H100.285V31.1544H107.999V23.3662Z" fill="#DC997A"/>
<path d="M7.71397 31.1543H0V38.9425H7.71397V31.1543Z" fill="#C07153"/>
<path d="M30.8585 31.1543H23.1445V38.9425H30.8585V31.1543Z" fill="#C07153"/>
<path d="M38.5714 31.1543H30.8574V38.9425H38.5714V31.1543Z" fill="#984641"/>
<path d="M46.2862 31.1543H38.5723V38.9425H46.2862V31.1543Z" fill="#C07153"/>
<path d="M53.9991 31.1543H46.2852V38.9425H53.9991V31.1543Z" fill="#DC997A"/>
<path d="M61.714 31.1543H54V38.9425H61.714V31.1543Z" fill="#DC997A"/>
<path d="M69.4288 31.1543H61.7148V38.9425H69.4288V31.1543Z" fill="#DC997A"/>
<path d="M77.1417 31.1543H69.4277V38.9425H77.1417V31.1543Z" fill="#F1CCB4"/>
<path d="M84.8565 31.1543H77.1426V38.9425H84.8565V31.1543Z" fill="#DC997A"/>
<path d="M107.999 31.1543H100.285V38.9425H107.999V31.1543Z" fill="#C07153"/>
<path d="M15.4288 38.9424H7.71484V46.7306H15.4288V38.9424Z" fill="#C07153"/>
<path d="M38.5714 38.9424H30.8574V46.7306H38.5714V38.9424Z" fill="#C07153"/>
<path d="M46.2862 38.9424H38.5723V46.7306H46.2862V38.9424Z" fill="#984641"/>
<path d="M53.9991 38.9424H46.2852V46.7306H53.9991V38.9424Z" fill="#C07153"/>
<path d="M61.714 38.9424H54V46.7306H61.714V38.9424Z" fill="#DC997A"/>
<path d="M69.4288 38.9424H61.7148V46.7306H69.4288V38.9424Z" fill="#DC997A"/>
<path d="M77.1417 38.9424H69.4277V46.7306H77.1417V38.9424Z" fill="#DC997A"/>
<path d="M100.284 38.9424H92.5703V46.7306H100.284V38.9424Z" fill="#C07153"/>
<path d="M23.1417 46.7305H15.4277V54.5187H23.1417V46.7305Z" fill="#984641"/>
<path d="M30.8585 46.7305H23.1445V54.5187H30.8585V46.7305Z" fill="#984641"/>
<path d="M46.2862 46.7305H38.5723V54.5187H46.2862V46.7305Z" fill="#C07153"/>
<path d="M53.9991 46.7305H46.2852V54.5187H53.9991V46.7305Z" fill="#984641"/>
<path d="M61.714 46.7305H54V54.5187H61.714V46.7305Z" fill="#C07153"/>
<path d="M69.4288 46.7305H61.7148V54.5187H69.4288V46.7305Z" fill="#C07153"/>
<path d="M84.8565 46.7305H77.1426V54.5187H84.8565V46.7305Z" fill="#984641"/>
<path d="M92.5694 46.7305H84.8555V54.5187H92.5694V46.7305Z" fill="#984641"/>
<path d="M53.9991 54.5195H46.2852V62.3078H53.9991V54.5195Z" fill="#984641"/>
<path d="M61.714 54.5195H54V62.3078H61.714V54.5195Z" fill="#DC997A"/>
<path d="M53.9991 62.3076H46.2852V70.0958H53.9991V62.3076Z" fill="#C07153"/>
<path d="M61.714 62.3076H54V70.0958H61.714V62.3076Z" fill="#DC997A"/>
<path d="M53.9991 70.0977H46.2852V77.8859H53.9991V70.0977Z" fill="#C07153"/>
<path d="M61.714 70.0977H54V77.8859H61.714V70.0977Z" fill="#F1CCB4"/>
<path d="M46.2862 77.8857H38.5723V85.674H46.2862V77.8857Z" fill="#C07153"/>
<path d="M53.9991 77.8857H46.2852V85.674H53.9991V77.8857Z" fill="#C07153"/>
<path d="M61.714 77.8857H54V85.674H61.714V77.8857Z" fill="#FDFAD4"/>
<path d="M69.4288 77.8857H61.7148V85.674H69.4288V77.8857Z" fill="#C07153"/>
<path d="M38.5714 85.6738H30.8574V93.4621H38.5714V85.6738Z" fill="#C07153"/>
<path d="M46.2862 85.6738H38.5723V93.4621H46.2862V85.6738Z" fill="#984641"/>
<path d="M53.9991 85.6738H46.2852V93.4621H53.9991V85.6738Z" fill="#DC997A"/>
<path d="M61.714 85.6738H54V93.4621H61.714V85.6738Z" fill="#DC997A"/>
<path d="M69.4288 85.6738H61.7148V93.4621H69.4288V85.6738Z" fill="#F1CCB4"/>
<path d="M77.1417 85.6738H69.4277V93.4621H77.1417V85.6738Z" fill="#C07153"/>
</g>
<path d="M53.9773 38.42C49.2373 38.42 46.0873 35.81 46.0873 31.91H49.5373C49.5373 33.92 51.3073 35.24 53.9773 35.24C56.8573 35.24 58.7773 33.95 58.7773 32.03C58.7773 30.11 56.8573 28.82 53.9773 28.82H52.0573V25.64H53.9773C56.4673 25.64 58.1473 24.56 58.1473 22.94C58.1473 21.29 56.4673 20.18 53.9773 20.18C51.5773 20.18 49.9873 21.71 49.9873 24.02H46.5973C46.5973 19.82 49.5373 17 53.9773 17C58.6273 17 61.7173 19.19 61.7173 22.49C61.7173 24.2 60.4873 26.06 58.6573 27.11C60.8473 28.04 62.2873 30.17 62.2873 32.42C62.2873 36.02 58.9573 38.42 53.9773 38.42Z" fill="white"/>
<defs>
<clipPath id="clip0_0_1">
<rect width="108" height="93" fill="white"/>
</clipPath>
</defs>
</svg>
